<svg width="36" height="34" viewBox="0 0 36 34" fill="none" xmlns="http://www.w3.org/2000/svg">
<path d="M18 0.25C15.7775 0.25 13.8 1.65 13.065 3.75H2.25V7.25H5.6625L0.500003 19.5C-0.322497 23 2.25 24.75 6.625 24.75C11 24.75 13.73 23 12.75 19.5L7.5875 7.25H13.0475C13.625 8.7375 14.7625 9.875 16.25 10.4525V30H0.500003V33.5H35.5V30H19.75V10.435C21.2375 9.875 22.375 8.7375 22.935 7.25H28.4125L23.25 19.5C22.4275 23 25 24.75 29.375 24.75C33.75 24.75 36.48 23 35.5 19.5L30.3375 7.25H33.75V3.75H22.9525C22.2 1.65 20.2225 0.25 18 0.25ZM18 3.75C18.4641 3.75 18.9093 3.93437 19.2374 4.26256C19.5656 4.59075 19.75 5.03587 19.75 5.5C19.75 5.96413 19.5656 6.40925 19.2374 6.73744C18.9093 7.06563 18.4641 7.25 18 7.25C17.5359 7.25 17.0908 7.06563 16.7626 6.73744C16.4344 6.40925 16.25 5.96413 16.25 5.5C16.25 5.03587 16.4344 4.59075 16.7626 4.26256C17.0908 3.93437 17.5359 3.75 18 3.75ZM6.625 12.9375L9.25 19.5H4L6.625 12.9375ZM29.375 12.9375L32 19.5H26.75L29.375 12.9375Z" fill="#605DEC"/>
</svg>
