<svg width="106" height="106" viewBox="0 0 106 106" fill="none" xmlns="http://www.w3.org/2000/svg">
<rect width="106" height="106" rx="24" fill="#605DEC"/>
<path d="M54.15 34.6001C53.845 34.6001 53.5525 34.7213 53.3368 34.9369C53.1211 35.1526 53 35.4451 53 35.7501V41.7301C53 44.8972 55.1321 47.5629 58.037 48.3771C57.531 54.6791 55.7094 59.3826 54.2167 62.2829C54.6399 62.7797 55.0378 63.15 55.3483 63.4099C56.542 64.4081 57.6 66.0342 57.6 68.0628C57.6015 69.2637 57.2178 70.4335 56.5052 71.4001H69.1C70.015 71.4001 70.8925 71.0366 71.5395 70.3896C72.1865 69.7426 72.55 68.8651 72.55 67.9501V67.244C72.55 66.4436 72.2763 65.7053 71.8554 65.1004C70.6134 63.3133 67.0967 57.5334 66.3607 48.3748C67.8104 47.9684 69.0875 47.0992 69.9973 45.8995C70.9071 44.6999 71.3997 43.2357 71.4 41.7301V35.7501C71.4 35.4451 71.2788 35.1526 71.0631 34.9369C70.8475 34.7213 70.555 34.6001 70.25 34.6001H68.525C68.0675 34.6001 67.6287 34.7818 67.3052 35.1053C66.9817 35.4288 66.8 35.8676 66.8 36.3251V38.0501C66.8003 38.2011 66.7708 38.3507 66.7133 38.4904C66.6558 38.63 66.5713 38.7569 66.4648 38.8639C66.2495 39.08 65.9573 39.2018 65.6523 39.2024C65.3473 39.203 65.0545 39.0824 64.8384 38.8672C64.6223 38.652 64.5006 38.3597 64.5 38.0547V38.0501L64.4908 36.3159C64.4883 35.86 64.3055 35.4236 63.9823 35.1021C63.6591 34.7806 63.2217 34.6001 62.7658 34.6001H61.6342C61.1783 34.6001 60.7409 34.7806 60.4177 35.1021C60.0944 35.4236 59.9116 35.86 59.9092 36.3159L59.9 38.0547C59.8994 38.3597 59.7776 38.652 59.5615 38.8672C59.3454 39.0824 59.0527 39.203 58.7477 39.2024C58.4427 39.2018 58.1504 39.08 57.9352 38.8639C57.7199 38.6478 57.5994 38.3551 57.6 38.0501V36.3251C57.6 35.8676 57.4182 35.4288 57.0947 35.1053C56.7712 34.7818 56.3325 34.6001 55.875 34.6001H54.15ZM44.95 41.5001C43.618 41.5001 42.3145 41.8857 41.1968 42.6102C40.0791 43.3348 39.1951 44.3673 38.6513 45.5833C38.1075 46.7992 37.9273 48.1465 38.1324 49.4626C38.3375 50.7787 38.9192 52.0073 39.8072 53.0001H39.2C38.59 53.0001 38.005 53.2424 37.5736 53.6738C37.1423 54.1051 36.9 54.6901 36.9 55.3001C36.9 55.9101 37.1423 56.4951 37.5736 56.9264C38.005 57.3578 38.59 57.6001 39.2 57.6001H40.396C39.5404 61.7355 37.2841 64.1229 36.026 65.174C35.2302 65.841 34.6 66.8668 34.6 68.0628C34.6 69.9051 36.095 71.4001 37.9373 71.4001H51.965C53.805 71.4001 55.3 69.9051 55.3 68.0628C55.3 66.8668 54.6698 65.841 53.874 65.174C52.6159 64.1229 50.3596 61.7355 49.504 57.6001H50.7C51.31 57.6001 51.895 57.3578 52.3263 56.9264C52.7577 56.4951 53 55.9101 53 55.3001C53 54.6901 52.7577 54.1051 52.3263 53.6738C51.895 53.2424 51.31 53.0001 50.7 53.0001H50.0928C50.9808 52.0073 51.5624 50.7787 51.7675 49.4626C51.9726 48.1465 51.7924 46.7992 51.2487 45.5833C50.7049 44.3673 49.8208 43.3348 48.7031 42.6102C47.5855 41.8857 46.282 41.5001 44.95 41.5001Z" fill="white"/>
</svg>
