<svg width="106" height="106" viewBox="0 0 106 106" fill="none" xmlns="http://www.w3.org/2000/svg">
<rect width="106" height="106" rx="24" fill="#605DEC"/>
<path d="M72.2841 47.2501L47.25 72.2823C46.983 72.5494 46.6661 72.7612 46.3172 72.9057C45.9684 73.0502 45.5945 73.1246 45.2169 73.1246C44.8392 73.1246 44.4653 73.0502 44.1165 72.9057C43.7676 72.7612 43.4507 72.5494 43.1837 72.2823L33.716 62.8164C33.4489 62.5494 33.2371 62.2324 33.0926 61.8836C32.948 61.5347 32.8737 61.1608 32.8737 60.7832C32.8737 60.4056 32.948 60.0317 33.0926 59.6829C33.2371 59.334 33.4489 59.017 33.716 58.7501L38.9574 53.5086C39.0242 53.4417 39.1035 53.3887 39.1907 53.3526C39.278 53.3164 39.3715 53.2978 39.466 53.2978C39.5604 53.2978 39.6539 53.3164 39.7412 53.3526C39.8285 53.3887 39.9077 53.4417 39.9745 53.5086L46.233 59.7671C46.3727 59.9068 46.5398 60.0161 46.7237 60.0883C46.9076 60.1606 47.1044 60.1941 47.3019 60.1868C47.4993 60.1796 47.6932 60.1317 47.8713 60.0462C48.0494 59.9607 48.208 59.8394 48.3371 59.6898C48.5732 59.405 48.6932 59.0417 48.6732 58.6724C48.6533 58.303 48.4947 57.9547 48.2293 57.6971L42.0067 51.4745C41.8723 51.3398 41.7968 51.1572 41.7968 50.9669C41.7968 50.7766 41.8723 50.594 42.0067 50.4593L44.7021 47.764C44.7688 47.6971 44.8481 47.6441 44.9353 47.6079C45.0226 47.5718 45.1161 47.5532 45.2106 47.5532C45.305 47.5532 45.3986 47.5718 45.4858 47.6079C45.5731 47.6441 45.6523 47.6971 45.7191 47.764L51.9776 54.0225C52.1174 54.1621 52.2844 54.2715 52.4683 54.3437C52.6522 54.4159 52.8491 54.4495 53.0465 54.4422C53.244 54.435 53.4378 54.3871 53.6159 54.3016C53.794 54.2161 53.9526 54.0948 54.0817 53.9452C54.3178 53.6604 54.4378 53.2971 54.4179 52.9277C54.3979 52.5584 54.2393 52.2101 53.9739 51.9525L47.7585 45.7245C47.6241 45.5898 47.5486 45.4072 47.5486 45.2169C47.5486 45.0266 47.6241 44.844 47.7585 44.7093L50.4538 42.014C50.5886 41.8795 50.7711 41.8041 50.9615 41.8041C51.1518 41.8041 51.3343 41.8795 51.4691 42.014L57.7276 48.2725C57.8674 48.4124 58.0345 48.522 58.2186 48.5944C58.4027 48.6668 58.5997 48.7004 58.7974 48.6932C58.9951 48.6859 59.1891 48.638 59.3674 48.5523C59.5457 48.4666 59.7044 48.345 59.8335 48.1952C60.0694 47.9102 60.1891 47.5468 60.1688 47.1774C60.1485 46.808 59.9896 46.4599 59.7239 46.2025L53.5085 39.9745C53.3741 39.8398 53.2986 39.6572 53.2986 39.4669C53.2986 39.2766 53.3741 39.094 53.5085 38.9593L58.75 33.7178C59.017 33.4508 59.334 33.2389 59.6828 33.0944C60.0317 32.9499 60.4056 32.8755 60.7832 32.8755C61.1608 32.8755 61.5347 32.9499 61.8836 33.0944C62.2324 33.2389 62.5494 33.4508 62.8163 33.7178L72.2841 43.1837C72.5511 43.4507 72.763 43.7677 72.9075 44.1165C73.052 44.4654 73.1264 44.8393 73.1264 45.2169C73.1264 45.5945 73.052 45.9684 72.9075 46.3173C72.763 46.6661 72.5511 46.9831 72.2841 47.2501Z" fill="white"/>
</svg>
