<svg width="106" height="106" viewBox="0 0 106 106" fill="none" xmlns="http://www.w3.org/2000/svg">
<rect width="106" height="106" rx="24" fill="#605DEC"/>
<path d="M64.5 34.3124C64.5005 34.0277 64.4165 33.7493 64.2586 33.5124C64.1007 33.2755 63.876 33.0909 63.613 32.9819C63.35 32.8729 63.0606 32.8444 62.7814 32.9001C62.5022 32.9558 62.2458 33.0931 62.0448 33.2946L56.2948 39.0446C56.1614 39.1784 56.0556 39.3371 55.9836 39.5117C55.9116 39.6864 55.8747 39.8735 55.875 40.0624V48.0923L53.7447 50.2198C53.3185 50.1067 52.872 50.0929 52.4397 50.1796C52.0074 50.2662 51.6007 50.4509 51.251 50.7195C50.9013 50.9881 50.618 51.3334 50.4228 51.7287C50.2275 52.1241 50.1257 52.559 50.125 52.9999C50.1252 53.409 50.2127 53.8134 50.3817 54.1861C50.5507 54.5587 50.7973 54.8909 51.105 55.1606C51.4127 55.4303 51.7744 55.6312 52.166 55.7499C52.5575 55.8686 52.9699 55.9024 53.3755 55.8489C53.7812 55.7955 54.1707 55.6561 54.5182 55.44C54.8657 55.224 55.163 54.9362 55.3903 54.5961C55.6177 54.2559 55.7698 53.8711 55.8365 53.4674C55.9033 53.0638 55.8831 52.6505 55.7773 52.2553L57.9077 50.1249H65.9375C66.1264 50.1252 66.3135 50.0883 66.4882 50.0163C66.6628 49.9443 66.8215 49.8385 66.9553 49.7051L72.7053 43.9551C72.9068 43.7541 73.0442 43.4977 73.0998 43.2185C73.1555 42.9393 73.127 42.6499 73.018 42.3869C72.909 42.1239 72.7244 41.8992 72.4875 41.7413C72.2506 41.5834 71.9722 41.4994 71.6875 41.4999H64.5V34.3124ZM70.089 50.6366C70.5837 54.2165 69.9416 57.8613 68.2534 61.0566C66.5651 64.2519 63.9159 66.8363 60.6798 68.4449C57.4437 70.0535 53.7841 70.6051 50.2176 70.0219C46.6511 69.4387 43.3578 67.7501 40.8026 65.1944C38.2475 62.6388 36.5595 59.3452 35.977 55.7786C35.3945 52.2119 35.9468 48.5524 37.5561 45.3166C39.1653 42.0808 41.7502 39.4322 44.9458 37.7445C48.1414 36.0569 51.7864 35.4155 55.3662 35.9109L54.265 37.012C53.8641 37.4124 53.546 37.8879 53.329 38.4113C53.1119 38.9347 53.0001 39.4958 53 40.0624C50.4412 40.0624 47.9399 40.8212 45.8123 42.2427C43.6848 43.6643 42.0265 45.6849 41.0473 48.0489C40.0681 50.4129 39.8119 53.0142 40.3111 55.5239C40.8103 58.0335 42.0425 60.3387 43.8518 62.1481C45.6612 63.9574 47.9664 65.1896 50.476 65.6888C52.9857 66.188 55.587 65.9318 57.951 64.9526C60.315 63.9734 62.3356 62.3151 63.7572 60.1876C65.1788 58.06 65.9375 55.5587 65.9375 52.9999C67.0809 52.9989 68.1771 52.5439 68.985 51.7349L70.089 50.6366ZM53 42.9374C51.0099 42.9374 49.0644 43.5275 47.4096 44.6332C45.7548 45.7389 44.4651 47.3105 43.7035 49.1491C42.9419 50.9878 42.7426 53.011 43.1309 54.963C43.5191 56.9149 44.4775 58.7079 45.8848 60.1151C47.292 61.5224 49.085 62.4808 51.0369 62.869C52.9889 63.2573 55.0121 63.058 56.8508 62.2964C58.6895 61.5348 60.261 60.2451 61.3667 58.5903C62.4724 56.9355 63.0625 54.9901 63.0625 52.9999H59.0979L58.7385 53.3593C58.6694 54.4638 58.283 55.5248 57.6258 56.4152C56.9685 57.3055 56.0683 57.9873 55.0331 58.3786C53.998 58.77 52.8719 58.8543 51.79 58.6215C50.7081 58.3886 49.7164 57.8486 48.9339 57.066C48.1514 56.2835 47.6113 55.2918 47.3784 54.2099C47.1456 53.128 47.2299 52.0019 47.6213 50.9668C48.0126 49.9316 48.6944 49.0314 49.5847 48.3741C50.4751 47.7169 51.5362 47.3305 52.6407 47.2614L53 46.902V42.9374Z" fill="white"/>
</svg>
