<svg width="106" height="106" viewBox="0 0 106 106" fill="none" xmlns="http://www.w3.org/2000/svg">
<rect width="106" height="106" rx="24" fill="#605DEC"/>
<g clip-path="url(#clip0_532_11744)">
<path fill-rule="evenodd" clip-rule="evenodd" d="M36.8999 73.6H69.1C71.6898 73.6 73.5298 72.4707 74.6476 70.9182C75.678 69.4853 76 67.8362 76 66.7V52.9C76 52.29 75.7577 51.705 75.3263 51.2736C74.895 50.8423 74.31 50.6 73.7 50.6H66.8V39.1C66.8 37.27 66.073 35.5149 64.779 34.2209C63.485 32.9269 61.7299 32.2 59.8999 32.2H36.8999C35.0699 32.2 33.3148 32.9269 32.0208 34.2209C30.7268 35.5149 29.9999 37.27 29.9999 39.1V66.7C29.9999 67.8339 30.3219 69.4853 31.3523 70.9182C32.4701 72.473 34.3101 73.6 36.8999 73.6ZM69.1 55.2C69.71 55.2 70.295 55.4423 70.7263 55.8737C71.1577 56.305 71.4 56.89 71.4 57.5V66.7C71.4 67.31 71.1577 67.895 70.7263 68.3264C70.295 68.7577 69.71 69 69.1 69C68.49 69 67.9049 68.7577 67.4736 68.3264C67.0423 67.895 66.8 67.31 66.8 66.7V57.5C66.8 56.89 67.0423 56.305 67.4736 55.8737C67.9049 55.4423 68.49 55.2 69.1 55.2ZM46.0999 48.3C46.0999 47.69 46.3422 47.105 46.7736 46.6736C47.2049 46.2423 47.7899 46 48.3999 46C49.0099 46 49.5949 46.2423 50.0263 46.6736C50.4576 47.105 50.6999 47.69 50.6999 48.3C50.6999 48.91 50.4576 49.495 50.0263 49.9263C49.5949 50.3577 49.0099 50.6 48.3999 50.6C47.7899 50.6 47.2049 50.3577 46.7736 49.9263C46.3422 49.495 46.0999 48.91 46.0999 48.3ZM48.3999 41.4C46.5699 41.4 44.8149 42.1269 43.5209 43.4209C42.2269 44.7149 41.4999 46.47 41.4999 48.3C41.4999 50.13 42.2269 51.885 43.5209 53.179C44.8149 54.473 46.5699 55.2 48.3999 55.2C50.2299 55.2 51.985 54.473 53.279 53.179C54.573 51.885 55.2999 50.13 55.2999 48.3C55.2999 46.47 54.573 44.7149 53.279 43.4209C51.985 42.1269 50.2299 41.4 48.3999 41.4ZM41.4999 59.8C40.8899 59.8 40.3049 60.0423 39.8736 60.4737C39.4422 60.905 39.1999 61.49 39.1999 62.1C39.1999 62.71 39.4422 63.295 39.8736 63.7264C40.3049 64.1577 40.8899 64.4 41.4999 64.4H55.2999C55.9099 64.4 56.4949 64.1577 56.9263 63.7264C57.3576 63.295 57.5999 62.71 57.5999 62.1C57.5999 61.49 57.3576 60.905 56.9263 60.4737C56.4949 60.0423 55.9099 59.8 55.2999 59.8H41.4999Z" fill="white"/>
</g>
<defs>
<clipPath id="clip0_532_11744">
<rect width="46" height="46" fill="white" transform="translate(30 30)"/>
</clipPath>
</defs>
</svg>
