<svg width="26" height="25" viewBox="0 0 26 25" fill="none" xmlns="http://www.w3.org/2000/svg">
<path d="M10.7086 1.51373H3.32998C2.51496 1.51373 1.85425 2.17882 1.85425 2.99925V10.4268C1.85425 11.2472 2.51496 11.9123 3.32998 11.9123H10.7086C11.5237 11.9123 12.1844 11.2472 12.1844 10.4268V2.99925C12.1844 2.17882 11.5237 1.51373 10.7086 1.51373Z" fill="#0096FF" stroke="#1E1E1E" stroke-width="1.01129"/>
<path d="M9.85439 0.65332H2.47573C1.66071 0.65332 1 1.31841 1 2.13883V9.56641C1 10.3868 1.66071 11.0519 2.47573 11.0519H9.85439C10.6694 11.0519 11.3301 10.3868 11.3301 9.56641V2.13883C11.3301 1.31841 10.6694 0.65332 9.85439 0.65332Z" fill="white" stroke="#1E1E1E" stroke-width="1.01129"/>
<path d="M5.19866 9.41024H6.38335C6.55588 7.74584 7.61406 6.39785 9.46586 6.38613V5.31951C7.61406 5.29606 6.55588 3.95983 6.38335 2.29541H5.19866C5.33668 3.53787 5.90028 4.7686 7.18849 5.2609V5.28434L2.55322 5.27262V6.43304L7.18849 6.42131V6.44476C5.90028 6.93702 5.33668 8.1678 5.19866 9.41024Z" fill="#0096FF"/>
<path d="M16.8993 4.19524L15.4937 8.31705L20.7289 6.45031L21.8524 2.51453L16.8993 4.19524ZM20.5778 6.30708L17.3548 7.45624L18.0585 5.39579L21.1563 4.28041L20.5778 6.30708ZM17.9145 5.25124L17.1344 7.53458L15.7912 8.01346L17.0442 4.33982L21.5792 2.80104L21.2196 4.06091L17.9145 5.25124Z" fill="#1E1E1E"/>
<path d="M15.7725 3.35142L13.4404 10.1504L14.4986 11.5592L23.0722 8.65092L24.8951 1.95307L23.8042 0.5L15.7725 3.35142ZM14.5651 11.3408L13.692 10.1788L21.85 7.28057L22.8425 8.53317L14.5651 11.3408ZM21.8053 7.10043L13.6926 9.98209L15.9171 3.49614L23.6326 0.757487L21.8053 7.10043ZM24.6931 1.99238L22.954 8.37938L21.9817 7.15219L23.8066 0.813225L24.6931 1.99238Z" fill="#1E1E1E"/>
<path d="M22.8424 8.53319L14.565 11.3408L13.6919 10.1788L21.8501 7.28082L22.8424 8.53319Z" fill="#0096FF"/>
<path d="M23.8086 0.81311L24.6942 1.99209L22.9557 8.37879L21.9834 7.1516L23.8086 0.81311Z" fill="#0096FF"/>
<path d="M15.9183 3.49633L13.6938 9.98233L21.8078 7.09981L23.6349 0.756989L15.9183 3.49633ZM20.7296 6.45017L15.4942 8.31683L16.8999 4.19508L21.853 2.51436L20.7296 6.45017Z" fill="white"/>
<path d="M21.579 2.80264L21.2194 4.06252L17.9143 5.25286L17.1342 7.53615L15.791 8.01503L17.044 4.34144L21.579 2.80264Z" fill="#0096FF"/>
<path d="M24.9996 19.2225V24.5H19.7569C16.8619 24.5 14.5142 22.1367 14.5142 19.2225C14.5142 16.3083 16.8619 13.945 19.7569 13.945C22.6519 13.945 24.9996 16.3083 24.9996 19.2225Z" fill="#0096FF" stroke="#1E1E1E" stroke-width="1.01129" stroke-miterlimit="10"/>
<path d="M24.0682 18.3624V23.6399H18.8255C15.9305 23.6399 13.5828 21.2766 13.5828 18.3624C13.5828 15.4482 15.9305 13.0849 18.8255 13.0849C21.7205 13.0849 24.0682 15.4482 24.0682 18.3624Z" fill="white" stroke="#1E1E1E" stroke-width="1.01129" stroke-miterlimit="10"/>
<path d="M24.0293 23.5617L25.0002 24.4217" stroke="#1E1E1E" stroke-width="1.01129"/>
<path d="M22.0173 17.6806L19.7291 17.8797L21.1621 15.9614C20.8698 15.0094 19.9839 15.2146 19.9839 15.2146L18.9668 17.357L17.9498 15.2146C16.8555 15.0773 16.7709 15.9622 16.7709 15.9622L18.2039 17.8805L15.9164 17.6806C15.9164 17.6806 15.3843 18.2818 15.9164 18.9758L18.2046 18.7525L16.7716 20.6709C16.7716 20.6709 16.9065 21.5361 17.9505 21.4185L18.9676 19.2753L19.9846 21.4185C19.9846 21.4185 20.8368 21.6878 21.1636 20.6709L19.7299 18.7525L22.018 18.9509C22.6799 18.3497 22.0173 17.6806 22.0173 17.6806Z" fill="#0096FF"/>
<path d="M7.64411 13.8225C6.51007 14.3957 5.25358 15.3907 4.10661 16.6251C2.95965 17.8594 2.05589 19.1873 1.56301 20.364C1.05484 21.5779 1.04327 22.4996 1.529 22.9588L2.84842 24.2014C3.33584 24.6608 4.24845 24.5882 5.41821 23.9959C6.5519 23.423 7.8084 22.4277 8.95574 21.1933C10.103 19.959 11.0065 18.6315 11.4993 17.4544C11.7592 16.8339 11.8891 16.2902 11.8891 15.8451C11.8891 15.4195 11.77 15.0843 11.5316 14.86L10.2122 13.6171C9.72615 13.159 8.81353 13.2315 7.64411 13.8225ZM11.3704 15.036C11.7738 15.416 11.7415 16.2639 11.2813 17.3623C10.7989 18.5137 9.91186 19.8166 8.78324 21.0307C7.65466 22.2449 6.42197 23.2221 5.31378 23.7829C4.25525 24.3178 3.4168 24.4064 3.01339 24.0264L2.18378 23.2447C2.68174 23.3053 3.33653 23.1419 4.10117 22.7544C5.23521 22.1812 6.49136 21.1858 7.63867 19.9515C8.78595 18.7171 9.68941 17.3896 10.1823 16.2125C10.4421 15.5924 10.5721 15.0483 10.5721 14.6032C10.5726 14.4859 10.5623 14.3689 10.5411 14.2536L11.3704 15.036ZM10.051 13.7931C10.4544 14.1731 10.4221 15.021 9.96188 16.1194C9.47955 17.2712 8.59244 18.5737 7.46384 19.7878C6.33524 21.0019 5.10289 21.9792 3.99436 22.54C2.93583 23.0749 2.09772 23.1635 1.69431 22.7838C1.50655 22.6071 1.41335 22.3294 1.41335 21.9723C1.41335 21.5614 1.53716 21.0451 1.78308 20.4572C2.26541 19.3057 3.15251 18.0028 4.2811 16.7887C5.4097 15.5746 6.64238 14.5973 7.75058 14.0365C8.8098 13.5017 9.64755 13.413 10.051 13.7931Z" fill="#1E1E1E"/>
<path d="M10.0512 13.7932C10.4546 14.1733 10.4223 15.0211 9.96211 16.1195C9.47978 17.2713 8.59266 18.5738 7.46406 19.7879C6.33546 21.0021 5.10312 21.9793 3.99459 22.5401C2.93606 23.075 2.09794 23.1637 1.69453 22.7839C1.50677 22.6072 1.41357 22.3296 1.41357 21.9724C1.41357 21.5616 1.53739 21.0452 1.78331 20.4573C2.26563 19.3059 3.15273 18.003 4.28133 16.7888C5.40993 15.5747 6.64261 14.5975 7.7508 14.0367C8.81003 13.5018 9.64778 13.4131 10.0512 13.7932Z" fill="white"/>
<path d="M10.5407 14.2541L11.371 15.0361C11.7743 15.4162 11.742 16.264 11.2818 17.3624C10.7995 18.5138 9.91241 19.8167 8.78378 21.0308C7.65521 22.245 6.42252 23.2222 5.31433 23.783C4.2558 24.3179 3.41735 24.4066 3.01394 24.0265L2.18433 23.2448C2.68229 23.3054 3.33707 23.1421 4.10171 22.7545C5.23576 22.1813 6.49191 21.186 7.63921 19.9516C8.7865 18.7173 9.68996 17.3898 10.1828 16.2126C10.4427 15.5925 10.5726 15.0484 10.5726 14.6033C10.5728 14.4861 10.5621 14.3693 10.5407 14.2541Z" fill="#0096FF"/>
</svg>
