<svg width="25" height="25" viewBox="0 0 25 25" fill="none" xmlns="http://www.w3.org/2000/svg">
<path d="M16.25 13.5C16.25 13.3011 16.171 13.1103 16.0303 12.9697C15.8897 12.829 15.6989 12.75 15.5 12.75H9.5C9.30109 12.75 9.11032 12.829 8.96967 12.9697C8.82902 13.1103 8.75 13.3011 8.75 13.5C8.75 13.6989 8.82902 13.8897 8.96967 14.0303C9.11032 14.171 9.30109 14.25 9.5 14.25H15.5C15.6989 14.25 15.8897 14.171 16.0303 14.0303C16.171 13.8897 16.25 13.6989 16.25 13.5ZM16.25 17.5C16.25 17.3011 16.171 17.1103 16.0303 16.9697C15.8897 16.829 15.6989 16.75 15.5 16.75H9.5C9.30109 16.75 9.11032 16.829 8.96967 16.9697C8.82902 17.1103 8.75 17.3011 8.75 17.5C8.75 17.6989 8.82902 17.8897 8.96967 18.0303C9.11032 18.171 9.30109 18.25 9.5 18.25H15.5C15.6989 18.25 15.8897 18.171 16.0303 18.0303C16.171 17.8897 16.25 17.6989 16.25 17.5Z" fill="#212121"/>
<path fill-rule="evenodd" clip-rule="evenodd" d="M7.5 2.75C6.77065 2.75 6.07118 3.03973 5.55546 3.55546C5.03973 4.07118 4.75 4.77065 4.75 5.5V19.5C4.75 20.2293 5.03973 20.9288 5.55546 21.4445C6.07118 21.9603 6.77065 22.25 7.5 22.25H17.5C18.2293 22.25 18.9288 21.9603 19.4445 21.4445C19.9603 20.9288 20.25 20.2293 20.25 19.5V8.468C20.25 8.087 20.126 7.717 19.896 7.413L16.898 3.445C16.7349 3.22912 16.5239 3.054 16.2817 2.93341C16.0395 2.81282 15.7726 2.75004 15.502 2.75H7.5ZM6.25 5.5C6.25 4.81 6.81 4.25 7.5 4.25H14.75V8.647C14.75 9.061 15.086 9.397 15.5 9.397H18.75V19.5C18.75 20.19 18.19 20.75 17.5 20.75H7.5C6.81 20.75 6.25 20.19 6.25 19.5V5.5Z" fill="#212121"/>
</svg>
