<svg width="18" height="18" viewBox="0 0 18 18" fill="none" xmlns="http://www.w3.org/2000/svg">
<path d="M1 0C0.734792 2.65169e-05 0.480453 0.105392 0.292922 0.292922C0.105392 0.480453 2.65169e-05 0.734792 0 1V17C2.65169e-05 17.2652 0.105392 17.5195 0.292922 17.7071C0.480453 17.8946 0.734792 18 1 18H8C8.26521 18 8.51955 17.8946 8.70708 17.7071C8.89461 17.5195 8.99997 17.2652 9 17V13.5V4.5V1C8.99997 0.734792 8.89461 0.480453 8.70708 0.292922C8.51955 0.105392 8.26521 2.65169e-05 8 0H1ZM9 4.5C9 6.97344 11.0266 9 13.5 9C15.9734 9 18 6.97344 18 4.5C18 2.02656 15.9734 0 13.5 0C11.0266 0 9 2.02656 9 4.5ZM13.5 9C11.0266 9 9 11.0266 9 13.5C9 15.9734 11.0266 18 13.5 18C15.9734 18 18 15.9734 18 13.5C18 11.0266 15.9734 9 13.5 9ZM2 2H7V16H2V2ZM13.5 2C14.8926 2 16 3.10744 16 4.5C16 5.89256 14.8926 7 13.5 7C12.1074 7 11 5.89256 11 4.5C11 3.10744 12.1074 2 13.5 2ZM13.5 11C14.8926 11 16 12.1074 16 13.5C16 14.8926 14.8926 16 13.5 16C12.1074 16 11 14.8926 11 13.5C11 12.1074 12.1074 11 13.5 11Z" fill="#212121"/>
</svg>
