<svg width="24" height="24" viewBox="0 0 24 24" fill="none" xmlns="http://www.w3.org/2000/svg">
<path d="M7.74665 1.17969C5.94778 1.17969 4.32046 1.48259 3.18065 1.94867C2.6107 2.18164 2.16492 2.45652 1.88193 2.73008C1.59899 3.00359 1.48542 3.25245 1.48542 3.4903C1.48542 3.72819 1.59899 3.97705 1.88198 4.25056C2.16492 4.52408 2.6107 4.79895 3.18065 5.03197C4.32046 5.498 5.94778 5.80091 7.74665 5.80091C7.75424 5.80091 7.76165 5.80063 7.76924 5.80063L5.94346 10.8868L10.0715 5.62433C10.9285 5.4898 11.693 5.28533 12.3126 5.03197C12.8826 4.79895 13.3284 4.52408 13.6114 4.25056C13.8944 3.97705 14.0079 3.72819 14.0079 3.4903C14.0079 3.25245 13.8944 3.00359 13.6114 2.73003C13.3284 2.45652 12.8826 2.18169 12.3127 1.94863C11.1728 1.48259 9.54553 1.17969 7.74665 1.17969ZM16.3621 5.62414C14.5632 5.62414 12.9359 5.92705 11.7961 6.39308C11.2262 6.62609 10.7804 6.90097 10.4974 7.17448C10.2144 7.448 10.1009 7.69686 10.1009 7.93475C10.1009 8.17259 10.2145 8.42155 10.4975 8.69506C10.7804 8.96863 11.2262 9.24336 11.7961 9.47638C11.9476 9.53805 12.1011 9.59482 12.2564 9.64658L16.1453 14.6043L14.5422 10.1383C15.1188 10.2072 15.7294 10.2454 16.3621 10.2454C18.161 10.2454 19.7883 9.94245 20.9281 9.47638C21.498 9.24341 21.9439 8.96863 22.2269 8.69506C22.5099 8.4215 22.6234 8.17259 22.6234 7.93475C22.6234 7.69686 22.5098 7.448 22.2269 7.17448C21.9439 6.90097 21.498 6.62609 20.9281 6.39308C19.7883 5.92705 18.161 5.62414 16.3621 5.62414ZM4.49999 11.6725C3.31078 11.6725 2.29687 12.7933 2.29687 14.2506C2.29687 15.7079 3.31078 16.8287 4.49999 16.8287C5.68921 16.8287 6.70312 15.7079 6.70312 14.2506C6.70312 12.7933 5.68921 11.6725 4.49999 11.6725ZM19.5 11.6725C18.3108 11.6725 17.2969 12.7933 17.2969 14.2506C17.2969 15.7079 18.3108 16.8287 19.5 16.8287C20.6892 16.8287 21.7031 15.7079 21.7031 14.2506C21.7031 12.7933 20.6892 11.6725 19.5 11.6725ZM2.72653 17.0325C2.39446 17.4226 2.11574 17.9353 1.89506 18.5237C1.41084 19.8148 1.21851 21.441 1.18579 22.8287H7.8142C7.78148 21.441 7.5891 19.8148 7.10498 18.5237C6.88424 17.9353 6.60553 17.4226 6.27346 17.0325C5.77715 17.4334 5.16726 17.6725 4.49999 17.6725C3.83273 17.6725 3.22284 17.4334 2.72653 17.0325ZM17.7265 17.0325C17.3945 17.4226 17.1157 17.9353 16.8951 18.5237C16.4108 19.8148 16.2185 21.441 16.1858 22.8287H22.8142C22.7815 21.441 22.5891 19.8148 22.105 18.5237C21.8842 17.9353 21.6055 17.4226 21.2735 17.0325C20.7772 17.4334 20.1673 17.6725 19.5 17.6725C18.8327 17.6725 18.2228 17.4334 17.7265 17.0325Z" fill="#212121"/>
</svg>
