<svg width="24" height="24" viewBox="0 0 24 24" fill="none" xmlns="http://www.w3.org/2000/svg">
<path d="M18.8437 7.87561C18.7064 9.78202 17.2922 11.2506 15.75 11.2506C14.2078 11.2506 12.7912 9.78249 12.6562 7.87561C12.5156 5.89233 13.8923 4.50061 15.75 4.50061C17.6076 4.50061 18.9844 5.92842 18.8437 7.87561Z" stroke="#00AC4F" stroke-width="1.5" stroke-linecap="round" stroke-linejoin="round"/>
<path d="M15.75 14.2506C12.6952 14.2506 9.7575 15.768 9.02156 18.723C8.92406 19.1139 9.16922 19.5006 9.57093 19.5006H21.9295C22.3312 19.5006 22.575 19.1139 22.4789 18.723C21.743 15.7206 18.8053 14.2506 15.75 14.2506Z" stroke="#00AC4F" stroke-width="1.5" stroke-miterlimit="10"/>
<path d="M9.37502 8.71655C9.26533 10.239 8.12252 11.4381 6.89065 11.4381C5.65877 11.4381 4.51408 10.2395 4.40627 8.71655C4.29424 7.13264 5.40658 6.00061 6.89065 6.00061C8.37471 6.00061 9.48705 7.1617 9.37502 8.71655Z" stroke="#00AC4F" stroke-width="1.5" stroke-linecap="round" stroke-linejoin="round"/>
<path d="M9.65622 14.3443C8.81013 13.9567 7.87825 13.8076 6.8906 13.8076C4.4531 13.8076 2.10466 15.0193 1.51638 17.3795C1.43903 17.6917 1.63497 18.0006 1.9556 18.0006H7.21872" stroke="#00AC4F" stroke-width="1.5" stroke-miterlimit="10" stroke-linecap="round"/>
</svg>
