<svg width="24" height="25" viewBox="0 0 24 25" fill="none" xmlns="http://www.w3.org/2000/svg">
<path d="M18.8437 8.375C18.7064 10.2814 17.2922 11.75 15.75 11.75C14.2078 11.75 12.7912 10.2819 12.6562 8.375C12.5156 6.39172 13.8923 5 15.75 5C17.6076 5 18.9844 6.42781 18.8437 8.375Z" stroke="#212121" stroke-width="1.5" stroke-linecap="round" stroke-linejoin="round"/>
<path d="M15.7501 14.75C12.6952 14.75 9.75756 16.2673 9.02162 19.2223C8.92412 19.6133 9.16928 20 9.571 20H21.9296C22.3313 20 22.5751 19.6133 22.479 19.2223C21.743 16.22 18.8054 14.75 15.7501 14.75Z" stroke="#212121" stroke-width="1.5" stroke-miterlimit="10"/>
<path d="M9.37496 9.21594C9.26527 10.7384 8.12246 11.9375 6.89058 11.9375C5.65871 11.9375 4.51402 10.7389 4.40621 9.21594C4.29418 7.63203 5.40652 6.5 6.89058 6.5C8.37465 6.5 9.48699 7.66109 9.37496 9.21594Z" stroke="#212121" stroke-width="1.5" stroke-linecap="round" stroke-linejoin="round"/>
<path d="M9.65622 14.8434C8.81013 14.4557 7.87825 14.3066 6.8906 14.3066C4.4531 14.3066 2.10466 15.5184 1.51638 17.8785C1.43903 18.1907 1.63497 18.4996 1.9556 18.4996H7.21872" stroke="#212121" stroke-width="1.5" stroke-miterlimit="10" stroke-linecap="round"/>
</svg>
