<svg width="24" height="24" viewBox="0 0 24 24" fill="none" xmlns="http://www.w3.org/2000/svg">
<path d="M9.98661 1.08659C7.40361 6.25371 4.81911 11.4201 2.23723 16.5891C2.00211 17.0593 2.34786 17.8828 2.84923 18.0475C8.34373 19.8257 13.8405 21.6017 19.3387 23.383C19.8454 23.5472 20.1532 22.9382 19.8851 22.297C18.4294 18.8252 16.9706 15.3467 15.5145 11.8761L11.1435 1.45296C10.8742 0.813213 10.2247 0.604338 9.98661 1.08809" fill="#5FA6C9"/>
<path d="M10.0594 0.892153C7.87163 5.26878 5.68164 9.64128 3.49839 14.0149C3.30001 14.4135 3.59176 15.1103 4.01588 15.2498C8.66739 16.7573 13.3211 18.261 17.9734 19.7685C18.4028 19.9065 18.6649 19.3898 18.4376 18.8475L14.7394 10.0279C13.5053 7.08753 12.2711 4.14453 11.0381 1.20453C10.8105 0.661153 10.26 0.487153 10.0583 0.892903" fill="#66B1DE"/>
<path d="M0.404978 12.9919C1.16435 14.8002 1.91998 16.6084 2.6816 18.4185L4.12873 21.8708C4.16023 21.9447 4.21835 21.9912 4.25885 21.9739C5.2616 21.5535 6.26473 21.1339 7.26635 20.712C7.8401 20.4713 8.4131 20.2317 8.9876 19.9898C9.02773 19.9748 9.03485 19.9002 9.0056 19.8248C8.2451 18.0147 7.48835 16.2079 6.72823 14.3982C6.24648 13.2479 5.7641 12.0974 5.2811 10.9467C5.26863 10.914 5.24873 10.8848 5.22298 10.8612L5.21735 10.86L5.21548 10.8582C5.19523 10.8417 5.17198 10.8342 5.15173 10.8428C4.14748 11.2635 3.14623 11.6843 2.14423 12.1039C1.57073 12.3442 0.996853 12.5853 0.422603 12.8273C0.381728 12.8423 0.374228 12.9158 0.404978 12.9919ZM12.8662 12.8937C15.5539 19.3062 18.6941 24.1028 19.878 23.6063C21.0619 23.1083 19.842 17.5077 17.1514 11.0963C14.4619 4.6838 11.3235 -0.113204 10.1385 0.382921C8.95498 0.880171 10.1756 6.48192 12.8662 12.8944" fill="#2B7F99"/>
<path d="M13.5375 12.6985C15.8478 18.2053 18.393 22.3862 19.2225 22.0367C20.0523 21.6894 18.8516 16.9435 16.5439 11.4392C14.2342 5.9312 11.6895 1.7507 10.8589 2.09833C10.029 2.44745 11.2294 7.19083 13.5364 12.6996" fill="#5FA6C9"/>
<path d="M17.5283 11.0286C18.069 12.3148 17.7075 13.6941 16.7205 14.1096C15.7331 14.5228 14.4926 13.8152 13.9515 12.5282C13.4123 11.242 13.7775 9.86422 14.7664 9.45059C15.7541 9.03659 16.9913 9.74122 17.5283 11.0286Z" fill="#72C1E8"/>
</svg>
