<svg width="24" height="24" viewBox="0 0 24 24" fill="none" xmlns="http://www.w3.org/2000/svg">
<path d="M9.98661 1.08695C7.40361 6.25408 4.81911 11.4205 2.23723 16.5895C2.00211 17.0597 2.34786 17.8832 2.84923 18.0478C8.34373 19.8261 13.8405 21.6021 19.3387 23.3833C19.8454 23.5476 20.1532 22.9386 19.8851 22.2973C18.4294 18.8256 16.9706 15.3471 15.5145 11.8765L11.1435 1.45333C10.8742 0.813579 10.2247 0.604704 9.98661 1.08845" fill="#5FA6C9"/>
<path d="M10.0594 0.892763C7.87163 5.26939 5.68164 9.64189 3.49839 14.0155C3.30001 14.4141 3.59176 15.1109 4.01588 15.2504C8.66739 16.7579 13.3211 18.2616 17.9734 19.7691C18.4028 19.9071 18.6649 19.3904 18.4376 18.8481L14.7394 10.0285C13.5053 7.08814 12.2711 4.14514 11.0381 1.20514C10.8105 0.661763 10.26 0.487763 10.0583 0.893513" fill="#66B1DE"/>
<path d="M0.404978 12.9922C1.16435 14.8004 1.91998 16.6087 2.6816 18.4188L4.12873 21.871C4.16023 21.9449 4.21835 21.9914 4.25885 21.9742C5.2616 21.5538 6.26473 21.1342 7.26635 20.7123C7.8401 20.4715 8.4131 20.2319 8.9876 19.99C9.02773 19.975 9.03485 19.9004 9.0056 19.825C8.2451 18.0149 7.48835 16.2082 6.72823 14.3984C6.24648 13.2482 5.7641 12.0977 5.2811 10.9469C5.26863 10.9143 5.24873 10.885 5.22298 10.8614L5.21735 10.8603L5.21548 10.8584C5.19523 10.8419 5.17198 10.8344 5.15173 10.843C4.14748 11.2638 3.14623 11.6845 2.14423 12.1042C1.57073 12.3444 0.996853 12.5855 0.422603 12.8275C0.381728 12.8425 0.374228 12.916 0.404978 12.9922ZM12.8662 12.8939C15.5539 19.3064 18.6941 24.103 19.878 23.6065C21.0619 23.1085 19.842 17.5079 17.1514 11.0965C14.4619 4.68404 11.3235 -0.11296 10.1385 0.383165C8.95498 0.880415 10.1756 6.48216 12.8662 12.8947" fill="#2B7F99"/>
<path d="M13.5375 12.6981C15.8478 18.205 18.393 22.3858 19.2225 22.0363C20.0523 21.6891 18.8516 16.9431 16.5439 11.4388C14.2342 5.93083 11.6895 1.75033 10.8589 2.09796C10.029 2.44708 11.2294 7.19046 13.5364 12.6992" fill="#5FA6C9"/>
<path d="M17.5283 11.029C18.069 12.3152 17.7075 13.6945 16.7205 14.11C15.7331 14.5232 14.4926 13.8156 13.9515 12.5286C13.4123 11.2423 13.7775 9.86458 14.7664 9.45096C15.7541 9.03696 16.9913 9.74158 17.5283 11.029Z" fill="#72C1E8"/>
</svg>
