<svg width="24" height="24" viewBox="0 0 24 24" fill="none" xmlns="http://www.w3.org/2000/svg">
<path d="M11.414 9.99997L4.031 17.418C3.83523 17.6122 3.67985 17.8434 3.57381 18.098C3.46778 18.3526 3.41319 18.6257 3.41319 18.9015C3.41319 19.1773 3.46778 19.4504 3.57381 19.705C3.67985 19.9596 3.83523 20.1907 4.031 20.385C4.42637 20.7782 4.96135 20.999 5.519 20.999C6.07665 20.999 6.61163 20.7782 7.007 20.385L14.414 13M18.121 15.293L20.707 12.707C20.8945 12.5194 20.9998 12.2651 20.9998 12C20.9998 11.7348 20.8945 11.4805 20.707 11.293L13.121 3.70697C12.9335 3.5195 12.6792 3.41418 12.414 3.41418C12.1488 3.41418 11.8945 3.5195 11.707 3.70697L9.121 6.29297C8.93353 6.4805 8.82821 6.73481 8.82821 6.99997C8.82821 7.26514 8.93353 7.51944 9.121 7.70697L16.707 15.293C16.8945 15.4804 17.1488 15.5858 17.414 15.5858C17.6792 15.5858 17.9335 15.4804 18.121 15.293Z" stroke="#212121" stroke-width="2" stroke-linecap="round" stroke-linejoin="round"/>
</svg>
