<svg width="24" height="24" viewBox="0 0 24 24" fill="none" xmlns="http://www.w3.org/2000/svg">
<path d="M11.4139 9.99985L4.0309 17.4178C3.83513 17.6121 3.67975 17.8432 3.57371 18.0978C3.46768 18.3525 3.41309 18.6255 3.41309 18.9014C3.41309 19.1772 3.46768 19.4502 3.57371 19.7049C3.67975 19.9595 3.83513 20.1906 4.0309 20.3848C4.42627 20.7781 4.96125 20.9989 5.5189 20.9989C6.07655 20.9989 6.61153 20.7781 7.0069 20.3848L14.4139 12.9998M18.1209 15.2928L20.7069 12.7068C20.8944 12.5193 20.9997 12.265 20.9997 11.9998C20.9997 11.7347 20.8944 11.4804 20.7069 11.2928L13.1209 3.70685C12.9334 3.51938 12.6791 3.41406 12.4139 3.41406C12.1487 3.41406 11.8944 3.51938 11.7069 3.70685L9.1209 6.29285C8.93343 6.48038 8.82811 6.73468 8.82811 6.99985C8.82811 7.26501 8.93343 7.51932 9.1209 7.70685L16.7069 15.2928C16.8944 15.4803 17.1487 15.5856 17.4139 15.5856C17.6791 15.5856 17.9334 15.4803 18.1209 15.2928Z" stroke="#212121" stroke-width="2" stroke-linecap="round" stroke-linejoin="round"/>
</svg>
