<svg width="24" height="25" viewBox="0 0 24 25" fill="none" xmlns="http://www.w3.org/2000/svg">
<path d="M4 5.50002C4.00002 5.36704 4.02656 5.2354 4.07807 5.1128C4.12959 4.9902 4.20503 4.87911 4.3 4.78602C5.38984 3.71766 6.84585 3.10475 8.37166 3.07206C9.89746 3.03936 11.3784 3.58933 12.513 4.61002L12.864 4.93802C13.5934 5.57712 14.5302 5.92945 15.5 5.92945C16.4698 5.92945 17.4066 5.57712 18.136 4.93802L18.385 4.71102C18.995 4.22802 19.912 4.61402 19.995 5.38702L20 5.50002V14.5C20 14.633 19.9734 14.7646 19.9219 14.8872C19.8704 15.0098 19.795 15.1209 19.7 15.214C18.6102 16.2824 17.1542 16.8953 15.6283 16.928C14.1025 16.9607 12.6216 16.4107 11.487 15.39L11.136 15.062C10.4295 14.443 9.52777 14.0924 8.58872 14.0715C7.64967 14.0507 6.73323 14.361 6 14.948V21.5C5.99972 21.7549 5.90212 22.0001 5.72715 22.1854C5.55218 22.3707 5.31305 22.4823 5.05861 22.4972C4.80416 22.5121 4.55362 22.4293 4.35817 22.2658C4.16271 22.1022 4.0371 21.8701 4.007 21.617L4 21.5V5.50002Z" fill="#1E1E1E"/>
</svg>
