<svg width="24" height="24" viewBox="0 0 24 24" fill="none" xmlns="http://www.w3.org/2000/svg">
<path d="M12.0001 5C11.6023 5 11.2208 5.15804 10.9395 5.43934C10.6582 5.72064 10.5001 6.10218 10.5001 6.5C10.5001 6.89782 10.6582 7.27936 10.9395 7.56066C11.2208 7.84196 11.6023 8 12.0001 8C12.3979 8 12.7795 7.84196 13.0608 7.56066C13.3421 7.27936 13.5001 6.89782 13.5001 6.5C13.5001 6.10218 13.3421 5.72064 13.0608 5.43934C12.7795 5.15804 12.3979 5 12.0001 5ZM8.50012 6.5C8.50012 6.04037 8.59065 5.58525 8.76654 5.16061C8.94243 4.73597 9.20024 4.35013 9.52525 4.02513C9.85025 3.70012 10.2361 3.44231 10.6607 3.26642C11.0854 3.09053 11.5405 3 12.0001 3C12.4597 3 12.9149 3.09053 13.3395 3.26642C13.7642 3.44231 14.15 3.70012 14.475 4.02513C14.8 4.35013 15.0578 4.73597 15.2337 5.16061C15.4096 5.58525 15.5001 6.04037 15.5001 6.5C15.5001 7.42826 15.1314 8.3185 14.475 8.97487C13.8186 9.63125 12.9284 10 12.0001 10C11.0719 10 10.1816 9.63125 9.52525 8.97487C8.86887 8.3185 8.50012 7.42826 8.50012 6.5ZM5.00012 8C4.7349 8 4.48055 8.10536 4.29301 8.29289C4.10548 8.48043 4.00012 8.73478 4.00012 9C4.00012 9.26522 4.10548 9.51957 4.29301 9.70711C4.48055 9.89464 4.7349 10 5.00012 10C5.26534 10 5.51969 9.89464 5.70723 9.70711C5.89476 9.51957 6.00012 9.26522 6.00012 9C6.00012 8.73478 5.89476 8.48043 5.70723 8.29289C5.51969 8.10536 5.26534 8 5.00012 8ZM2.00012 9C2.00012 8.20435 2.31619 7.44129 2.8788 6.87868C3.44141 6.31607 4.20447 6 5.00012 6C5.79577 6 6.55883 6.31607 7.12144 6.87868C7.68405 7.44129 8.00012 8.20435 8.00012 9C8.00012 9.79565 7.68405 10.5587 7.12144 11.1213C6.55883 11.6839 5.79577 12 5.00012 12C4.20447 12 3.44141 11.6839 2.8788 11.1213C2.31619 10.5587 2.00012 9.79565 2.00012 9ZM18.0001 9C18.0001 8.73478 18.1055 8.48043 18.293 8.29289C18.4805 8.10536 18.7349 8 19.0001 8C19.2653 8 19.5197 8.10536 19.7072 8.29289C19.8948 8.48043 20.0001 8.73478 20.0001 9C20.0001 9.26522 19.8948 9.51957 19.7072 9.70711C19.5197 9.89464 19.2653 10 19.0001 10C18.7349 10 18.4805 9.89464 18.293 9.70711C18.1055 9.51957 18.0001 9.26522 18.0001 9ZM19.0001 6C18.2045 6 17.4414 6.31607 16.8788 6.87868C16.3162 7.44129 16.0001 8.20435 16.0001 9C16.0001 9.79565 16.3162 10.5587 16.8788 11.1213C17.4414 11.6839 18.2045 12 19.0001 12C19.7958 12 20.5588 11.6839 21.1214 11.1213C21.684 10.5587 22.0001 9.79565 22.0001 9C22.0001 8.20435 21.684 7.44129 21.1214 6.87868C20.5588 6.31607 19.7958 6 19.0001 6ZM8.00012 14.5C8.00012 13.12 9.12012 12 10.5001 12H13.5001C14.8801 12 16.0001 13.12 16.0001 14.5V17C16.0001 18.0609 15.5787 19.0783 14.8285 19.8284C14.0784 20.5786 13.061 21 12.0001 21C10.9393 21 9.92184 20.5786 9.17169 19.8284C8.42155 19.0783 8.00012 18.0609 8.00012 17V14.5ZM10.5001 14C10.3675 14 10.2403 14.0527 10.1466 14.1464C10.0528 14.2402 10.0001 14.3674 10.0001 14.5V17C10.0001 17.5304 10.2108 18.0391 10.5859 18.4142C10.961 18.7893 11.4697 19 12.0001 19C12.5306 19 13.0393 18.7893 13.4143 18.4142C13.7894 18.0391 14.0001 17.5304 14.0001 17V14.5C14.0001 14.3674 13.9474 14.2402 13.8537 14.1464C13.7599 14.0527 13.6327 14 13.5001 14H10.5001ZM6.00012 14.5C6.00012 13.922 6.10812 13.37 6.30812 12.864L3.84612 13.524C3.20604 13.6956 2.66027 14.1143 2.32875 14.6881C1.99723 15.2618 1.90708 15.9438 2.07812 16.584L2.46612 18.034C2.60211 18.5415 2.83674 19.0172 3.15661 19.4339C3.47647 19.8507 3.8753 20.2004 4.33032 20.463C4.78535 20.7256 5.28764 20.896 5.80853 20.9645C6.32942 21.0329 6.85869 20.9981 7.36612 20.862L7.40012 20.852C6.93876 20.3024 6.57974 19.6744 6.34012 18.998C5.89816 19.0003 5.4679 18.8561 5.11656 18.5879C4.76522 18.3198 4.51258 17.9429 4.39812 17.516L4.01012 16.066C3.97593 15.9379 3.99401 15.8015 4.0604 15.6867C4.12678 15.5719 4.23603 15.4882 4.36412 15.454L6.00012 15.014V14.5ZM16.6321 20.86L16.6001 20.854C17.0561 20.308 17.4181 19.682 17.6601 18.998C18.1017 18.9998 18.5315 18.8554 18.8825 18.5873C19.2334 18.3193 19.4857 17.9426 19.6001 17.516L19.9861 16.066C20.0203 15.9379 20.0022 15.8015 19.9358 15.6867C19.8695 15.5719 19.7602 15.4882 19.6321 15.454L18.0001 15.016V14.5C18.0001 13.922 17.8921 13.372 17.6941 12.864L20.1501 13.524C20.7902 13.6956 21.336 14.1143 21.6675 14.6881C21.999 15.2618 22.0892 15.9438 21.9181 16.584L21.5301 18.034C21.3941 18.5415 21.1595 19.0172 20.8396 19.4339C20.5198 19.8507 20.1209 20.2004 19.6659 20.463C19.2109 20.7256 18.7086 20.896 18.1877 20.9645C17.6668 21.0329 17.1375 20.9981 16.6301 20.862" fill="#212121"/>
</svg>
